<svg width="18" height="15" viewBox="0 0 18 15" fill="none" xmlns="http://www.w3.org/2000/svg">
<path d="M1.50134 6.75098H16.5013C16.7003 6.75098 16.891 6.82999 17.0317 6.97065C17.1723 7.1113 17.2513 7.30206 17.2513 7.50098C17.2513 7.69989 17.1723 7.89065 17.0317 8.03131C16.891 8.17196 16.7003 8.25098 16.5013 8.25098H1.50134C1.30243 8.25098 1.11167 8.17196 0.971013 8.03131C0.830361 7.89065 0.751343 7.69989 0.751343 7.50098C0.751343 7.30206 0.830361 7.1113 0.971013 6.97065C1.11167 6.82999 1.30243 6.75098 1.50134 6.75098Z" fill="currentColor"/>
<path d="M1.81184 7.50095L8.03234 13.7199C8.17317 13.8608 8.25229 14.0518 8.25229 14.2509C8.25229 14.4501 8.17317 14.6411 8.03234 14.7819C7.89151 14.9228 7.7005 15.0019 7.50134 15.0019C7.30218 15.0019 7.11117 14.9228 6.97034 14.7819L0.220341 8.03195C0.150496 7.96228 0.0950816 7.87951 0.057272 7.7884C0.0194623 7.69728 0 7.5996 0 7.50095C0 7.4023 0.0194623 7.30462 0.057272 7.2135C0.0950816 7.12238 0.150496 7.03962 0.220341 6.96995L6.97034 0.219947C7.11117 0.0791173 7.30218 0 7.50134 0C7.7005 0 7.89151 0.0791173 8.03234 0.219947C8.17317 0.360777 8.25229 0.551784 8.25229 0.750947C8.25229 0.950111 8.17317 1.14112 8.03234 1.28195L1.81184 7.50095Z" fill="currentColor"/>
</svg>
