<svg  viewBox="0 0 64 65" fill="none" xmlns="http://www.w3.org/2000/svg">
<path d="M39.232 21.9862C47.0592 12.3377 35.044 13.6548 33.3002 12.7821C32.6874 12.4758 32.0845 9.51928 30.7208 10.202C28.6208 11.2526 28.7992 16.7213 28.5714 18.5456C28.4477 19.5386 27.0613 20.9603 26.6056 21.9862C25.8783 23.6234 25.0791 25.5707 23.7429 27.6043C22.4069 29.6381 19.6147 31.2147 18.2171 32.769C12.2691 39.3803 14.8193 47.1526 21.3496 52.1787C27.9546 57.2622 55.541 55.365 47.7439 43.663" stroke="currentColor" stroke-width="2" stroke-linecap="round" stroke-linejoin="round"/>
<path d="M36.1445 26.4653C38.0829 33.5603 35.3003 40.9698 35.3003 47.9171C35.3003 48.7166 36.8869 47.9451 37.6641 48.088" stroke="currentColor" stroke-width="2" stroke-linecap="round" stroke-linejoin="round"/>
<path d="M26.0267 33.9206C27.5871 34.1504 29.0111 35.2958 30.1155 36.3666C35.6131 41.697 28.5901 45.2792 28.2011 47.1635C28.1133 47.5898 29.9256 47.8832 30.2896 47.9222" stroke="currentColor" stroke-width="2" stroke-linecap="round" stroke-linejoin="round"/>
<path d="M33.8458 10.579C34.9058 9.58471 35.1081 11.3251 35.3004 12.282" stroke="currentColor" stroke-width="2" stroke-linecap="round" stroke-linejoin="round"/>
</svg>
